 http://www.imdb.com/title/tt0105323/ 

Source: Scent.of.a.Woman.1992.720p.BluRay.x264-EbP

Subs: Arabic, Brazilian, Croatian, Danish, Dutch, English, Finnish, French, German, Greek, Norwegian, Polish, Portuguese, Spanish, Swedish, Turkish and Vietnamese.

Sample and Screens included.

General
Complete name                    : Scent of a Woman-720p MP4 AAC x264 BRRip 1992-CC.mp4
Format                           : MPEG-4
Format profile                   : Base Media
Codec ID                         : isom
File size                        : 2.80 GiB
Duration                         : 2h 36mn
Overall bit rate                 : 2 565 Kbps
Encoded date                     : UTC 2012-07-28 11:10:55

Video
ID                               : 1
Format                           : AVC
Format/Info                      : Advanced Video Codec
Format profile                   : High@L3.1
Format settings, CABAC           : Yes
Format settings, ReFrames        : 5 frames
Codec ID                         : avc1
Codec ID/Info                    : Advanced Video Coding
Duration                         : 2h 36mn
Bit rate mode                    : Variable
Bit rate                         : 2 176 Kbps
Nominal bit rate                 : 2 195 Kbps
Maximum bit rate                 : 34.1 Mbps
Width                            : 1 280 pixels
Height                           : 688 pixels
Display aspect ratio             : 16:9
Frame rate mode                  : Variable
Frame rate                       : 23.976 fps
Minimum frame rate               : 23.810 fps
Maximum frame rate               : 24.390 fps
Resolution                       : 24 bits
Colorimetry                      : 4:2:0
Scan type                        : Progressive
Bits/(Pixel*Frame)               : 0.103
Stream size                      : 2.38 GiB (85%)
Writing library                  : x264 core 112

Audio
ID                               : 2
Format                           : AAC
Format/Info                      : Advanced Audio Codec
Format version                   : Version 4
Format profile                   : LC
Format settings, SBR             : No
Codec ID                         : 40
Duration                         : 2h 36mn
Bit rate mode                    : Variable
Bit rate                         : 384 Kbps
Maximum bit rate                 : 584 Kbps
Channel(s)                       : 6 channels
Channel positions                : Front: L C R, Rear: L R, LFE
Sampling rate                    : 48.0 KHz
Resolution                       : 16 bits
Stream size                      : 430 MiB (15%)
Language                         : English

Enjoy...

Requested by cmptrluvr's.